<?xml version="1.0" encoding="UTF-8"?> <svg xmlns="http://www.w3.org/2000/svg" id="Layer_1" data-name="Layer 1" width="779.07" height="141.73" viewBox="0 0 779.07 141.73"><title>Microsoft365_logo_horiz_c-gray_cmyk_horiz_c-gray_cmyk</title><g id="MS-symbol"><g><path d="M608.2,69.69v.19c5,.58,8.89,2.32,11.76,5.23a15,15,0,0,1,4.32,11,18.7,18.7,0,0,1-6.89,15.15q-6.9,5.75-18.74,5.74a41.61,41.61,0,0,1-9.44-1.08,23,23,0,0,1-7.08-2.62V92.11a25,25,0,0,0,7.56,4,27,27,0,0,0,8.71,1.51q6.44,0,10.19-3a9.94,9.94,0,0,0,3.72-8.14,9.39,9.39,0,0,0-4.41-8.39c-2.95-1.93-7.15-2.89-12.63-2.89h-6V65.61h5.71q7.26,0,11.18-2.7A8.92,8.92,0,0,0,610,55a9,9,0,0,0-3-7.32c-2-1.71-4.92-2.57-8.67-2.56a20.68,20.68,0,0,0-7,1.22,24.17,24.17,0,0,0-6.58,3.67V39.59a28.42,28.42,0,0,1,7.45-2.8,39.73,39.73,0,0,1,9.09-1q9,0,14.82,4.66a14.89,14.89,0,0,1,5.78,12.11,16.73,16.73,0,0,1-3.55,11A18.89,18.89,0,0,1,608.2,69.69Z" fill="#737474"></path><path d="M643,70a12.92,12.92,0,0,1,6.1-5.76,20.9,20.9,0,0,1,9.17-2,20,20,0,0,1,14,5.45q5.88,5.46,5.88,15.84,0,10.95-6.74,17.19a23.27,23.27,0,0,1-16.4,6.24q-11.28,0-17.76-8.38T630.8,75.22q0-19.5,8.61-29.48a27.4,27.4,0,0,1,21.64-10,50.12,50.12,0,0,1,7.24.47,18.64,18.64,0,0,1,5.33,1.49V48.13a26.26,26.26,0,0,0-6-2.26,25.55,25.55,0,0,0-6-.74A16.55,16.55,0,0,0,648,51.65q-5.15,6.52-5.24,18.32Zm.19,13.54a14.92,14.92,0,0,0,3.37,9.92,10.7,10.7,0,0,0,8.55,4A10.54,10.54,0,0,0,663.33,94q3.15-3.47,3.14-9.53,0-6.42-3.08-9.72A10.86,10.86,0,0,0,655,71.47a11.47,11.47,0,0,0-8.57,3.33,11.93,11.93,0,0,0-3.23,8.76Z" fill="#737474"></path><path d="M725.94,84.33q0,10.24-6.86,16.49T700.21,107a35.2,35.2,0,0,1-9.46-1.23,32.77,32.77,0,0,1-7-2.66V92.3a25.77,25.77,0,0,0,7.6,4,24.67,24.67,0,0,0,7.52,1.27q6.87,0,11-3.41A11.33,11.33,0,0,0,714,84.91,10.5,10.5,0,0,0,709.79,76q-4.24-3.18-12.22-3.17c-1.57,0-3.62.07-6.17.21s-4.3.28-5.26.41L688.59,37h34.23v9.86H698.19l-1.13,16.77c1.34-.11,2.38-.16,3.09-.17h3Q714,63.41,720,69T725.94,84.33Z" fill="#737474"></path></g><path d="M239.64,37v68.84h-12V51.87h-.19l-21.36,54h-7.92L176.29,51.87h-.14v54h-11V37h17.14L202,88h.29l20.89-51Zm10,5.23a6.33,6.33,0,0,1,2.09-4.82,7.41,7.41,0,0,1,10.06,0,6.58,6.58,0,0,1,2,4.78A6.21,6.21,0,0,1,261.74,47a7.07,7.07,0,0,1-5,1.92,7,7,0,0,1-5-1.93,6.29,6.29,0,0,1-2.08-4.74Zm12.82,14.27v49.37H250.82V56.48ZM297.7,97.37a15.76,15.76,0,0,0,5.67-1.19A24,24,0,0,0,309.13,93v10.81a23.43,23.43,0,0,1-6.31,2.4,34.86,34.86,0,0,1-7.76.82q-10.89,0-17.7-6.9t-6.82-17.59q0-11.89,7-19.56t19.72-7.8a27.28,27.28,0,0,1,6.61.84,22,22,0,0,1,5.3,2V69.17a23.31,23.31,0,0,0-5.5-3A15.8,15.8,0,0,0,297.9,65a14.55,14.55,0,0,0-11.09,4.46q-4.23,4.47-4.22,12.06t4.05,11.66q4,4.17,11,4.15Zm44.51-41.71a14,14,0,0,1,2.5.19,10,10,0,0,1,1.86.48V68.09a10.17,10.17,0,0,0-2.66-1.27,13.33,13.33,0,0,0-4.25-.6,9.05,9.05,0,0,0-7.23,3.6q-3,3.6-2.95,11.09v24.91H317.9V56.45h11.61v7.77h.2A13.55,13.55,0,0,1,334.48,58,13,13,0,0,1,342.21,55.66Zm5,26.21q0-12.24,6.92-19.39t19.21-7.16q11.57,0,18.07,6.89t6.52,18.63q0,12-6.91,19.11t-18.82,7.1q-11.47,0-18.21-6.74T347.2,81.87Zm12.12-.39q0,7.74,3.5,11.81t10,4.08q6.34,0,9.65-4.08t3.32-12.11q0-8-3.44-12t-9.62-4.07q-6.39,0-9.91,4.25t-3.55,12.14Zm55.89-12a5,5,0,0,0,1.59,3.91q1.59,1.41,7,3.58,7,2.79,9.76,6.26a12.91,12.91,0,0,1,2.8,8.38A13.52,13.52,0,0,1,431,102.75Q425.66,107,416.54,107a35.4,35.4,0,0,1-6.8-.75,30.18,30.18,0,0,1-6.3-1.86V93a28.2,28.2,0,0,0,6.82,3.5,19.93,19.93,0,0,0,6.62,1.3,11.83,11.83,0,0,0,5.8-1.1,4,4,0,0,0,1.87-3.73,5.11,5.11,0,0,0-1.94-4.05,29,29,0,0,0-7.37-3.82q-6.45-2.69-9.13-6a13.21,13.21,0,0,1-2.68-8.55,13.47,13.47,0,0,1,5.3-11q5.31-4.3,13.76-4.31a33.14,33.14,0,0,1,5.8.57,25.88,25.88,0,0,1,5.38,1.49V68.33a25.11,25.11,0,0,0-5.38-2.64,17.89,17.89,0,0,0-6.05-1.11,8.82,8.82,0,0,0-5.16,1.31,4.1,4.1,0,0,0-1.9,3.55Zm26.17,12.43q0-12.24,6.91-19.39t19.2-7.16q11.58,0,18.08,6.89t6.52,18.63q0,12-6.91,19.11t-18.83,7.1q-11.48,0-18.21-6.74t-6.79-18.44Zm12.11-.39q0,7.74,3.51,11.81T467,97.37q6.33,0,9.65-4.08t3.31-12.11q0-8-3.43-12t-9.63-4.07q-6.37,0-9.91,4.25t-3.49,12.14ZM530.64,66H513.29v39.84H501.53V66h-8.26v-9.5h8.26V49.6a17.06,17.06,0,0,1,5.06-12.74,17.82,17.82,0,0,1,13-5,29.06,29.06,0,0,1,3.73.22,15,15,0,0,1,2.88.65v10a13.26,13.26,0,0,0-2-.82,10.54,10.54,0,0,0-3.3-.47,7,7,0,0,0-5.59,2.28q-2,2.28-2,6.74v6h17.3V45.38l11.67-3.55V56.48H554V66H542.26V89.07q0,4.56,1.65,6.43t5.21,1.87a7.66,7.66,0,0,0,2.42-.48A11.92,11.92,0,0,0,554,95.73v9.61a14.24,14.24,0,0,1-3.67,1.15,26.12,26.12,0,0,1-5.07.53q-7.35,0-11-3.92t-3.67-11.78Z" fill="#737474"></path><rect x="15.94" y="14.03" width="54.53" height="54.53" fill="#f05125"></rect><rect x="76.14" y="14.03" width="54.53" height="54.53" fill="#7ebb42"></rect><rect x="15.94" y="74.24" width="54.53" height="54.53" fill="#33a0da"></rect><rect x="76.14" y="74.24" width="54.53" height="54.53" fill="#fdb813"></rect></g></svg> 